<?xml version="1.0" encoding="UTF-8" standalone="no"?>
<svg
   xmlns:dc="http://purl.org/dc/elements/1.1/"
   xmlns:cc="http://creativecommons.org/ns#"
   xmlns:rdf="http://www.w3.org/1999/02/22-rdf-syntax-ns#"
   xmlns:svg="http://www.w3.org/2000/svg"
   xmlns="http://www.w3.org/2000/svg"
   id="svg8"
   version="1.1"
   viewBox="0 0 25 25"
   height="25mm"
   width="25mm">
  <defs
     id="defs2" />
  <metadata
     id="metadata5">
    <rdf:RDF>
      <cc:Work
         rdf:about="">
        <dc:format>image/svg+xml</dc:format>
        <dc:type
           rdf:resource="http://purl.org/dc/dcmitype/StillImage" />
        <dc:title></dc:title>
      </cc:Work>
    </rdf:RDF>
  </metadata>
  <g
     transform="translate(-128.36072,-175.33258)"
     id="layer1">
    <path
       id="path826"
       d="m 139.98215,179.36662 c -7.8679,-0.0633 -13.2159,5.7981 -6.34367,10.94052 1.31125,0.98119 2.52996,1.01479 4.3152,1.32525 0.44831,3.72443 3.39369,4.17688 5.84739,4.66666 -2.20401,-1.09685 -4.39084,-2.10334 -4.46987,-5.84739 -8.84886,-3.18859 -5.67672,-10.54381 2.8805,-10.44056 1.41018,0.017 0.65535,-0.35902 0.28196,-0.42648 -0.85674,-0.1412 -1.69759,-0.21146 -2.51151,-0.218 z m 10.58691,8.70728 c -1.55364,-0.0113 -2.85559,0.1537 -4.16761,0.31147 0.7406,0.91262 2.59453,0.86597 3.50837,0.84681 -0.23754,1.0317 -0.78665,2.29233 -1.35661,3.32327 -0.26901,0.48659 0.1557,0.56528 0.37133,0.26613 0.99581,-1.34909 2.02202,-1.99967 2.32652,-4.73139 -0.233,-0.009 -0.46005,-0.0146 -0.682,-0.0163 z m -1.48268,1.74526 c -3.55441,1.20748 -5.26449,1.03148 -7.23905,1.05405 l 0.0141,1.12478 c 5.02293,-0.35566 6.24939,-1.27126 7.22491,-2.17883 z"
       style="fill:#000000;stroke:none;stroke-width:0.15743089px;stroke-linecap:butt;stroke-linejoin:miter;stroke-opacity:1" />
  </g>
</svg>
