<?xml version="1.0" encoding="UTF-8" standalone="no"?>
<svg
   xmlns:dc="http://purl.org/dc/elements/1.1/"
   xmlns:cc="http://creativecommons.org/ns#"
   xmlns:rdf="http://www.w3.org/1999/02/22-rdf-syntax-ns#"
   xmlns:svg="http://www.w3.org/2000/svg"
   xmlns="http://www.w3.org/2000/svg"
   id="svg967"
   version="1.1"
   viewBox="0 0 7 25"
   height="25"
   width="25">
  <metadata
     id="metadata973">
    <rdf:RDF>
      <cc:Work
         rdf:about="">
        <dc:format>image/svg+xml</dc:format>
        <dc:type
           rdf:resource="http://purl.org/dc/dcmitype/StillImage" />
        <dc:title></dc:title>
      </cc:Work>
    </rdf:RDF>
  </metadata>
  <defs
     id="defs971" />
  <g
     transform="matrix(0.08588494,0,0,0.08588494,-5.0626998,2.8784668)"
     style="fill:#000000"
     id="g965">
    <path
       style="fill:#000000"
       id="path961"
       d="m 152.7,48.5 c -6.8,-2.5 -14.1,-4.1 -21.8,-4.4 -12.7,-0.6 -24.8,2.2 -35.4,7.6 -0.6,0.3 -1.3,0.6 -2,1 v 36.4 c 0,0.5 0,2.4 -0.3,4 -0.7,3.7 -2.9,7 -6,9.1 -2.6,1.8 -5.6,2.6 -8.8,2.5 -0.6,0 -1.3,-0.1 -1.9,-0.2 -1.6,-0.3 -3.3,-0.9 -3.8,-1.1 -1.4,-0.5 -21.8,-8.4 -31.6,-12.2 -1.2,-0.5 -2.2,-0.9 -3,-1.2 -11.7,9.9 -24,21.7 -35.5,35.6 -0.1,0.1 -0.6,0.7 -0.7,0.8 -1.5,2.1 -1.6,5.1 0,7.4 1.2,1.7 3.1,2.7 5,2.8 1.3,0.1 2.7,-0.3 3.9,-1.1 0.1,-0.1 0.2,-0.2 0.4,-0.3 12.2,-8.8 25.6,-15.9 39.8,-21.6 1,-0.5 2.2,-0.8 3.3,-0.7 1.6,0.1 3.1,0.7 4.3,1.9 2.3,2.3 2.4,6 0.5,8.5 -0.8,1.2 -1.5,2.4 -2.2,3.6 -7.6,12.4 -13.7,25.9 -18.3,40 -0.1,0.4 -0.2,0.7 -0.3,1.1 v 0.1 c -0.4,1.7 -0.1,3.5 1,5 1.2,1.7 3.1,2.7 5.1,2.8 1.4,0.1 2.7,-0.3 3.9,-1.1 0.5,-0.4 1,-0.8 1.4,-1.3 0.1,-0.2 0.3,-0.4 0.4,-0.6 5,-7.1 10.5,-13.8 16.4,-20 26.3,-28.2 61.2,-48.1 100.3,-55.9 0.3,-0.1 0.6,-0.1 0.9,-0.1 2.2,0.1 3.9,2 3.8,4.2 -0.1,1.9 -1.4,3.3 -3.2,3.7 -36.3,7.7 -101.7,50.8 -78.8,113.4 0.4,1 0.7,1.6 1.2,2.5 1.2,1.7 3.1,2.7 5,2.8 1.1,0 4.2,-0.3 6.1,-3.7 3.7,-7 10.7,-14.8 30.9,-23.2 56.3,-23.3 65.6,-56.6 66.6,-77.7 v -1.2 C 200.2,86.3 180.7,58.9 152.7,48.5 Z m -56.5,165 C 91,198 91.5,183 97.6,168.7 c 11.7,18.9 32.1,20.5 32.1,20.5 -20.9,8.7 -29.1,17.3 -33.5,24.3 z" />
    <path
       style="fill:#000000"
       id="path963"
       d="m 1.1,50.6 c 0.1,0.2 0.3,0.4 0.4,0.5 5.3,7.2 11.3,13.5 17.8,19.1 0.1,0.1 0.2,0.1 0.2,0.2 4.2,3.6 12.2,8.8 18,10.9 0,0 36.1,13.9 38,14.7 0.7,0.3 1.7,0.6 2.2,0.7 1.6,0.3 3.3,0 4.8,-1 1.5,-1 2.4,-2.5 2.7,-4.1 0.1,-0.6 0.2,-1.6 0.2,-2.3 V 48.5 C 85.5,42.3 83.5,32.9 81.7,27.7 81.7,27.6 81.6,27.5 81.6,27.4 78.8,19.3 75,11.4 70.2,3.9 L 69.9,3.3 69.8,3.2 c -2,-2.8 -6,-3.5 -8.9,-1.5 -0.5,0.3 -0.8,0.7 -1.2,1.1 -0.3,0.4 -0.5,0.7 -0.8,1.1 -6.4,9.3 -9,20.6 -7.3,31.7 -3.3,1.7 -6.8,4 -7.2,4.3 -0.4,0.3 -3.9,2.7 -6.6,5.2 C 28.1,39.6 16.5,37.9 5.6,40.5 5.2,40.6 4.7,40.7 4.3,40.8 3.8,41 3.3,41.2 2.9,41.5 0,43.5 -0.8,47.4 1.1,50.4 Z M 64.6,10.5 c 3.4,5.7 6.3,11.6 8.6,17.8 -4.6,0.8 -9.1,2 -13.5,3.6 C 59.1,24.4 60.8,17 64.6,10.5 Z M 31.5,51.3 c -3.2,3.5 -5.9,7.3 -8.3,11.3 -4.9,-4.3 -9.4,-9.2 -13.5,-14.4 7.5,-1.3 15,-0.2 21.8,3.1 z" />
  </g>
</svg>
