<?xml version="1.0" encoding="UTF-8" standalone="no"?>
<svg
   xmlns:dc="http://purl.org/dc/elements/1.1/"
   xmlns:cc="http://creativecommons.org/ns#"
   xmlns:rdf="http://www.w3.org/1999/02/22-rdf-syntax-ns#"
   xmlns:svg="http://www.w3.org/2000/svg"
   xmlns="http://www.w3.org/2000/svg"
   id="svg8"
   version="1.1"
   viewBox="0 0 35.537392 8.0489779"
   height="8.0489779mm"
   width="35.537392mm">
  <defs
     id="defs2" />
  <metadata
     id="metadata5">
    <rdf:RDF>
      <cc:Work
         rdf:about="">
        <dc:format>image/svg+xml</dc:format>
        <dc:type
           rdf:resource="http://purl.org/dc/dcmitype/StillImage" />
        <dc:title></dc:title>
      </cc:Work>
    </rdf:RDF>
  </metadata>
  <g
     transform="translate(-37.143669,-142.38656)"
     id="layer1">
    <g
       id="text817"
       style="font-style:normal;font-variant:normal;font-weight:600;font-stretch:normal;font-size:10.58333302px;line-height:1.25;font-family:'Nunito Sans';-inkscape-font-specification:'Nunito Sans Semi-Bold';letter-spacing:0px;word-spacing:0px;fill:#000000;fill-opacity:1;stroke:none;stroke-width:0.26458332"
       aria-label="BrMDb">
      <path
         id="path834"
         style="font-style:normal;font-variant:normal;font-weight:bold;font-stretch:normal;font-size:11.28888893px;font-family:'Nunito Sans';-inkscape-font-specification:'Nunito Sans Bold';stroke-width:0.26458332"
         d="m 42.043047,146.23607 q 0.688622,0.19192 1.061155,0.69992 0.383822,0.508 0.383822,1.24177 0,1.016 -0.733777,1.59174 -0.722489,0.57573 -1.998134,0.57573 h -3.612444 v -7.95867 h 3.499555 q 1.241778,0 1.941689,0.55316 0.7112,0.54187 0.7112,1.524 0,0.63218 -0.338666,1.09502 -0.327378,0.46285 -0.9144,0.67733 z m -3.476978,-0.49671 h 1.840089 q 1.501422,0 1.501422,-1.1176 0,-0.56444 -0.372533,-0.83537 -0.372534,-0.27094 -1.128889,-0.27094 h -1.840089 z m 2.032,3.47698 q 0.790222,0 1.151466,-0.28222 0.361245,-0.28222 0.361245,-0.88053 0,-0.59832 -0.372533,-0.89183 -0.361245,-0.29351 -1.140178,-0.29351 h -2.032 v 2.34809 z" />
      <path
         id="path836"
         style="font-style:normal;font-variant:normal;font-weight:bold;font-stretch:normal;font-size:11.28888893px;font-family:'Nunito Sans';-inkscape-font-specification:'Nunito Sans Bold';stroke-width:0.26458332"
         d="m 48.364809,145.86354 -0.824089,0.079 q -1.399822,0.14676 -1.399822,1.4224 v 2.98027 h -1.411111 v -5.52027 h 1.343378 v 0.97085 q 0.428978,-0.99342 1.772355,-1.08374 l 0.428978,-0.0339 z" />
      <path
         id="path838"
         style="font-style:normal;font-variant:normal;font-weight:bold;font-stretch:normal;font-size:11.28888893px;font-family:'Nunito Sans';-inkscape-font-specification:'Nunito Sans Bold';stroke-width:0.26458332"
         d="m 55.80418,142.38656 h 1.140178 v 7.95867 h -1.286933 v -5.26062 l -2.099734,3.97369 h -0.970844 l -2.111022,-3.91725 0.01129,5.20418 H 49.20018 v -7.95867 h 1.151467 l 2.731911,5.20418 z" />
      <path
         id="path840"
         style="font-style:normal;font-variant:normal;font-weight:bold;font-stretch:normal;font-size:11.28888893px;font-family:'Nunito Sans';-inkscape-font-specification:'Nunito Sans Bold';stroke-width:0.26458332"
         d="m 58.671554,142.38656 h 2.935111 q 1.952978,0 3.025423,1.04987 1.083733,1.03858 1.083733,2.92382 0,1.88525 -1.083733,2.93511 -1.072445,1.04987 -3.025423,1.04987 h -2.935111 z m 2.8448,6.77334 q 2.7432,0 2.7432,-2.79965 0,-2.78835 -2.7432,-2.78835 h -1.388533 v 5.588 z" />
      <path
         id="path842"
         style="font-style:normal;font-variant:normal;font-weight:bold;font-stretch:normal;font-size:11.28888893px;font-family:'Nunito Sans';-inkscape-font-specification:'Nunito Sans Bold';stroke-width:0.26458332"
         d="m 70.231372,144.6895 q 0.722489,0 1.275645,0.34995 0.553155,0.34996 0.857955,0.99342 0.316089,0.64347 0.316089,1.50143 0,0.85795 -0.316089,1.524 -0.3048,0.65475 -0.869244,1.016 -0.553156,0.36124 -1.264356,0.36124 -0.598311,0 -1.072444,-0.25964 -0.462845,-0.25965 -0.7112,-0.72249 v 0.89182 h -1.388534 v -7.95867 h 1.411111 v 3.23991 q 0.248356,-0.45155 0.7112,-0.68862 0.462845,-0.24835 1.049867,-0.24835 z m -0.372533,4.65102 q 0.666044,0 1.038578,-0.47413 0.372533,-0.47414 0.372533,-1.33209 0,-0.84667 -0.372533,-1.29823 -0.361245,-0.45155 -1.038578,-0.45155 -0.677334,0 -1.049867,0.46284 -0.361244,0.45156 -0.361244,1.30951 0,0.85796 0.361244,1.3208 0.372533,0.46285 1.049867,0.46285 z" />
    </g>
  </g>
</svg>
