<?xml version="1.0" encoding="UTF-8" standalone="no"?>
<svg
   xmlns:dc="http://purl.org/dc/elements/1.1/"
   xmlns:cc="http://creativecommons.org/ns#"
   xmlns:rdf="http://www.w3.org/1999/02/22-rdf-syntax-ns#"
   xmlns:svg="http://www.w3.org/2000/svg"
   xmlns="http://www.w3.org/2000/svg"
   id="svg8"
   version="1.1"
   viewBox="0 0 25 25"
   height="25mm"
   width="25mm">
  <defs
     id="defs2" />
  <metadata
     id="metadata5">
    <rdf:RDF>
      <cc:Work
         rdf:about="">
        <dc:format>image/svg+xml</dc:format>
        <dc:type
           rdf:resource="http://purl.org/dc/dcmitype/StillImage" />
        <dc:title></dc:title>
      </cc:Work>
    </rdf:RDF>
  </metadata>
  <g
     transform="translate(-60.887535,-126.75328)"
     id="layer1">
    <g
       transform="matrix(0.91709037,0,0,0.91709037,7.0958653,10.534107)"
       id="text817"
       style="font-style:normal;font-variant:normal;font-weight:600;font-stretch:normal;font-size:10.58333302px;line-height:1.25;font-family:'Nunito Sans';-inkscape-font-specification:'Nunito Sans Semi-Bold';letter-spacing:0px;word-spacing:0px;fill:#000000;fill-opacity:1;stroke:none;stroke-width:0.26458332"
       aria-label="MAL">
      <path
         id="path819"
         style="font-style:normal;font-variant:normal;font-weight:bold;font-stretch:normal;font-family:AGRevueCyr-Roman;-inkscape-font-specification:'AGRevueCyr-Roman Bold';stroke-width:0.26458332"
         d="m 68.910301,144.07028 h -2.266012 v -5.22707 h -0.02067 l -1.746663,2.32802 -1.702739,-2.32802 h -0.02325 v 5.22707 h -2.263428 v -8.64546 h 2.147156 l 1.842265,2.53989 1.883605,-2.53989 h 2.14974 z" />
      <path
         id="path821"
         style="font-style:normal;font-variant:normal;font-weight:bold;font-stretch:normal;font-family:AGRevueCyr-Roman;-inkscape-font-specification:'AGRevueCyr-Roman Bold';stroke-width:0.26458332"
         d="m 76.982159,144.07028 h -2.263428 v -2.74143 h -2.477884 q 0.01809,1.32808 0.868164,2.74143 l -1.839681,1.21698 q -0.418579,-0.62787 -0.72347,-1.33583 -0.302307,-0.71055 -0.462504,-1.46245 -0.160197,-0.75447 -0.160197,-1.49861 0,-0.77515 0.167948,-1.52187 0.167948,-0.74931 0.516764,-1.42627 0.348816,-0.67696 0.873332,-1.20148 0.576192,-0.58136 1.232483,-0.88884 0.658874,-0.31005 1.372009,-0.41857 0.713135,-0.10852 1.638143,-0.10852 h 1.111043 l 0.529684,1.94561 h -1.77767 q -1.105875,0 -1.746663,0.31781 -0.638204,0.31781 -0.894002,0.71055 -0.253215,0.39274 -0.483175,0.98186 h 2.255676 v -1.74408 h 2.263428 z" />
      <path
         id="path823"
         style="font-style:normal;font-variant:normal;font-weight:bold;font-stretch:normal;font-family:AGRevueCyr-Roman;-inkscape-font-specification:'AGRevueCyr-Roman Bold';stroke-width:0.26458332"
         d="m 80.708029,142.12208 h 2.973979 l -0.529683,1.9482 h -4.707723 v -8.64546 h 2.263427 z" />
    </g>
  </g>
</svg>
